

Release info:

General
Format                                   : Matroska
Format version                           : Version 2
File size                                : 437 MiB
Duration                                 : 1h 25mn
Overall bit rate                         : 712 Kbps

Video
ID                                       : 1
Format                                   : AVC
Format/Info                              : Advanced Video Codec
Format profile                           : High@L2.1
Format settings, CABAC                   : Yes
Format settings, ReFrames                : 4 frames
Muxing mode                              : Header stripping
Codec ID                                 : V_MPEG4/ISO/AVC
Duration                                 : 1h 25mn
Bit rate                                 : 583 Kbps
Width                                    : 720 pixels
Height                                   : 256 pixels
Display aspect ratio                     : 2.813
Frame rate mode                          : Constant
Frame rate                               : 25.000 fps
Color space                              : YUV
Chroma subsampling                       : 4:2:0
Bit depth                                : 8 bits
Scan type                                : Progressive
Bits/(Pixel*Frame)                       : 0.127
Stream size                              : 350 MiB (80%)
Language                                 : English
Default                                  : Yes
Forced                                   : No

Audio
ID                                       : 2
Format                                   : MPEG Audio
Format version                           : Version 1
Format profile                           : Layer 3
Mode                                     : Joint stereo
Mode extension                           : MS Stereo
Muxing mode                              : Header stripping
Codec ID                                 : A_MPEG/L3
Codec ID/Hint                            : MP3
Duration                                 : 1h 25mn
Bit rate mode                            : Constant
Bit rate                                 : 128 Kbps
Channel(s)                               : 2 channels
Sampling rate                            : 44.1 KHz
Compression mode                         : Lossy
Stream size                              : 78.6 MiB (18%)
Writing library                          : LAME3.98.2
Language                                 : English
Default                                  : Yes
Forced                                   : No

Source:
credit to original movie ripper 26k (Thanks)

IMDB Info:

An account of a family caught, with tens of thousands of strangers, in the mayhem of one of the worst natural catastrophes of our time.

Director: Juan Antonio Bayona
Writers: Sergio G. Sánchez (screenplay), Maria Belon (story)
Stars: Naomi Watts, Ewan McGregor and Tom Holland

Genres: Action | Drama | Thriller
 
http://www.imdb.com/title/tt1649419/

Screen Shot:
 
http://www.shotpix.com/images/55974604398429210619.png 
http://www.shotpix.com/images/13231850179515241439.png 
http://www.shotpix.com/images/34577382189242465200.png 
http://www.shotpix.com/images/23691357788503936865.png 
http://www.shotpix.com/images/73586488644553525735.png 
http://www.shotpix.com/images/09129376211247792135.png